<?xml version="1.0" encoding="UTF-8"?>
<svg xmlns="http://www.w3.org/2000/svg" viewBox="0 0 24 24" width="24" height="24" fill="white">
  <path d="M12 10.8c-1.08-2.15-3.66-4.57-6.04-5.31C4.04 4.88 2 5.56 2 8c0 1.96 1.15 4.9 1.8 5.92.52.82 1.43 1.25 2.45.92l3.4-.95c-.32.93-.97 3.32-.97 4.31 0 1.85 2.08 2.1 3.32 0 1.14-1.93 1.8-4.5 1.8-4.5s.66 2.57 1.8 4.5c1.24 2.1 3.32 1.85 3.32 0 0-.99-.65-3.38-.97-4.31l3.4.95c1.02.33 1.93-.1 2.45-.92C20.85 12.9 22 9.96 22 8c0-2.44-2.04-3.12-3.96-2.51-2.38.74-4.96 3.16-6.04 5.31z"/>
</svg>