<?xml version="1.0" encoding="UTF-8"?>
<svg xmlns="http://www.w3.org/2000/svg" viewBox="0 0 24 24" width="24" height="24" fill="white">
  <path d="M19.27 5.33C17.94 4.71 16.5 4.26 15 4a.09.09 0 0 0-.07.03c-.18.33-.39.76-.53 1.09a16.09 16.09 0 0 0-4.8 0c-.14-.33-.35-.76-.53-1.09a.09.09 0 0 0-.07-.03c-1.5.26-2.94.71-4.27 1.33-.01 0-.02.01-.03.02-2.72 4.07-3.47 8.03-3.1 11.95 0 .02.01.04.03.05 1.8 1.32 3.53 2.12 5.24 2.65.03.01.06 0 .07-.02.41-.56.79-1.15 1.13-1.77a.09.09 0 0 0-.04-.12c-.59-.22-1.16-.48-1.7-.77a.09.09 0 0 1-.01-.15c.12-.09.24-.18.36-.27.02-.01.04-.02.06-.01 3.52 1.61 7.33 1.61 10.82 0 .02-.01.04-.01.06.01.12.09.24.18.36.27a.09.09 0 0 1-.01.15c-.54.29-1.11.55-1.7.77a.09.09 0 0 0-.04.12c.34.62.72 1.21 1.13 1.77.01.02.04.03.07.02 1.71-.53 3.44-1.33 5.24-2.65.02-.01.03-.03.03-.05.44-4.53-.73-8.46-3.1-11.95-.01-.01-.02-.02-.03-.02zM8.52 14.91c-1.03 0-1.89-.95-1.89-2.12s.84-2.12 1.89-2.12c1.06 0 1.9.96 1.89 2.12 0 1.17-.84 2.12-1.89 2.12zm6.97 0c-1.03 0-1.89-.95-1.89-2.12s.84-2.12 1.89-2.12c1.06 0 1.9.96 1.89 2.12 0 1.17-.83 2.12-1.89 2.12z"/>
</svg>