<?xml version="1.0" encoding="UTF-8"?>
<svg xmlns="http://www.w3.org/2000/svg" viewBox="0 0 24 24" width="24" height="24" fill="white">
  <path d="M12.53.02C13.84 0 15.14.01 16.44 0c.08 1.53.63 3.09 1.75 4.17 1.12 1.11 2.7 1.62 4.24 1.79v4.03c-1.44-.05-2.89-.35-4.2-.97-.57-.26-1.1-.59-1.62-.93v7.2c0 1.5-.35 3.01-1.12 4.29-1.28 2.15-3.72 3.47-6.28 3.39-2.61-.08-5.06-1.57-6.29-3.9-1.17-2.22-1.11-4.93.13-7.1 1.16-2.01 3.34-3.36 5.66-3.6.14-.02.28-.02.42-.03v4.18c-1.56.12-2.91 1.25-3.41 2.7-.49 1.43-.1 3.12.96 4.19.98.98 2.44 1.35 3.79 1.01 1.34-.33 2.37-1.41 2.71-2.75.12-.47.16-.96.16-1.45V.02z"/>
</svg>