<?xml version="1.0" encoding="UTF-8"?>
<svg xmlns="http://www.w3.org/2000/svg" viewBox="0 0 24 24" width="24" height="24" fill="white">
  <path d="M21.582 6.186a2.63 2.63 0 0 0-1.851-1.867C18.096 3.882 12 3.882 12 3.882s-6.096 0-7.731.437a2.63 2.63 0 0 0-1.851 1.867C2 7.834 2 12 2 12s0 4.166.418 5.814a2.63 2.63 0 0 0 1.851 1.867c1.635.437 7.731.437 7.731.437s6.096 0 7.731-.437a2.63 2.63 0 0 0 1.851-1.867C22 16.166 22 12 22 12s0-4.166-.418-5.814zM9.996 15.005l.005-6 5.207 3.005-5.212 2.995z"/>
</svg>